<svg xmlns="http://www.w3.org/2000/svg" xmlns:xlink="http://www.w3.org/1999/xlink" width="500" zoomAndPan="magnify" viewBox="0 0 375 374.999991" height="500" preserveAspectRatio="xMidYMid meet" version="1.0"><defs><g/><clipPath id="0356b620d6"><path d="M 65.25 0 L 309.75 0 C 327.054688 0 343.652344 6.875 355.890625 19.109375 C 368.125 31.347656 375 47.945312 375 65.25 L 375 309.75 C 375 327.054688 368.125 343.652344 355.890625 355.890625 C 343.652344 368.125 327.054688 375 309.75 375 L 65.25 375 C 29.214844 375 0 345.785156 0 309.75 L 0 65.25 C 0 29.214844 29.214844 0 65.25 0 Z M 65.25 0 " clip-rule="nonzero"/></clipPath></defs><g clip-path="url(#0356b620d6)"><rect x="-37.5" width="450" fill="#000000" y="-37.499999" height="449.999989" fill-opacity="1"/></g><path stroke-linecap="butt" transform="matrix(1.128712, 0, 0, 1.128712, 76.251782, -59.396199)" fill="none" stroke-linejoin="miter" d="M 198.613923 153.228545 C 198.613923 155.827608 197.897537 158.662006 196.468225 161.735199 C 195.038914 164.75302 193.581915 167.244798 192.097231 169.203613 C 190.349525 171.802676 188.757556 176.412466 187.328244 183.032983 C 185.950844 189.65696 184.916064 197.260345 184.227364 205.843137 C 183.594037 214.374017 183.327555 222.984496 183.43484 231.674573 C 183.538664 240.36465 184.175452 248.071859 185.341743 254.803122 C 186.559945 261.530923 188.255739 266.29991 190.429124 269.106622 C 193.713426 273.027712 195.88681 276.180504 196.945816 278.564997 C 198.056734 280.949491 198.613923 283.652378 198.613923 286.673659 C 198.613923 290.805859 196.814306 293.95865 193.211609 296.132035 C 189.605452 298.301959 184.916064 299.786643 179.143444 300.582628 C 173.419275 301.32324 167.19329 301.693546 160.465489 301.693546 L 157.523806 301.693546 C 151.059025 301.693546 144.888413 301.32324 139.005047 300.582628 C 133.125142 299.786643 128.383842 298.301959 124.781146 296.132035 C 121.230361 293.95865 119.454969 290.805859 119.454969 286.673659 C 119.454969 283.652378 120.143669 280.738382 121.521069 277.93167 C 122.950381 275.121498 124.88497 272.179815 127.321375 269.106622 C 129.705869 266.088801 131.429349 261.371726 132.488355 254.962319 C 133.602733 248.54945 134.263747 241.236773 134.474856 233.024286 C 134.689425 224.759888 134.45063 216.49549 133.76193 208.227631 C 133.76193 208.227631 133.045544 210.189906 131.616232 214.110996 C 130.238832 218.032087 128.304243 223.091781 125.812465 229.29008 C 123.324147 235.436466 120.434377 242.032758 117.150074 249.078953 C 113.917684 256.128609 110.446498 262.749126 106.739978 268.950886 C 103.081909 275.149184 99.292329 280.208879 95.3747 284.129969 C 91.45361 287.995686 87.556745 289.930275 83.691028 289.930275 C 78.44445 289.930275 74.471448 288.421365 71.76856 285.400084 C 69.065673 282.382263 67.71596 278.911078 67.71596 274.989987 C 67.71596 266.511019 66.020166 257.928227 62.628579 249.23815 C 59.288904 240.548073 55.343588 232.574382 50.78571 225.317078 C 46.227832 218.056312 42.25483 212.256006 38.863243 207.909237 C 35.527028 203.565929 33.858921 201.392544 33.858921 201.392544 C 33.222133 212.256006 33.274045 223.330576 34.018118 234.616256 C 34.75873 245.901936 36.163816 255.993638 38.229916 264.894824 C 40.296015 273.79601 42.863931 279.970083 45.937124 283.413583 C 47.2107 284.73907 48.269706 286.009185 49.117603 287.230849 C 50.017412 288.393679 50.574601 289.639568 50.78571 290.965056 C 51.211389 293.986337 48.826895 296.526566 43.632229 298.596127 C 38.441025 300.662226 32.34655 301.693546 25.352266 301.693546 C 17.776568 301.693546 11.602495 300.662226 6.833508 298.596127 C 2.067982 296.526566 -0.212688 293.986337 -0.0015787 290.965056 C 0.212991 289.639568 0.794406 288.393679 1.749588 287.230849 C 2.756682 286.009185 3.919511 284.73907 5.244999 283.413583 C 8.26628 280.181192 10.754598 274.512397 12.716873 266.407195 C 14.675688 258.246621 16.028862 248.89553 16.769474 238.350463 C 17.510086 227.805395 17.617371 217.288014 17.087868 206.798319 C 16.558365 196.253251 15.312476 186.874474 13.353661 178.661988 C 11.391386 170.39759 8.556988 164.514224 4.847007 161.018813 C 1.829186 157.997531 0.212991 155.401929 -0.0015787 153.228545 C -0.212688 150.210724 1.455419 146.978334 5.006204 143.534834 C 8.6089 140.035962 15.392074 138.288257 25.352266 138.288257 L 51.422498 138.288257 C 59.050108 138.288257 65.940568 141.333764 72.086954 147.428238 C 78.285253 153.46734 83.611429 161.441031 88.062022 171.349311 C 92.512615 181.205678 96.087625 191.830345 98.790513 203.219848 C 101.4934 214.612813 103.293018 225.607785 104.196287 236.204765 C 109.598601 226.244573 113.495466 216.599314 115.879959 207.27591 C 118.260992 197.949045 119.666078 189.445851 120.091757 181.762868 C 120.565887 174.027972 120.565887 167.667016 120.091757 162.68692 C 119.666078 157.706824 119.454969 154.554032 119.454969 153.228545 C 119.454969 149.096345 121.230361 145.943554 124.781146 143.77363 C 128.383842 141.600245 133.125142 140.143247 139.005047 139.402635 C 144.888413 138.658563 151.059025 138.288257 157.523806 138.288257 L 160.465489 138.288257 C 167.19329 138.288257 173.419275 138.658563 179.143444 139.402635 C 184.916064 140.143247 189.605452 141.600245 193.211609 143.77363 C 196.814306 145.943554 198.613923 149.096345 198.613923 153.228545 Z M 198.613923 153.228545 " stroke="#ffffff" stroke-width="4.476189" stroke-opacity="1" stroke-miterlimit="4"/><g fill="#ffffff" fill-opacity="1"><g transform="translate(76.251782, 297.276772)"><g><path d="M 224.140625 -183.71875 C 224.140625 -180.78125 223.34375 -177.59375 221.75 -174.15625 C 220.15625 -170.726562 218.5 -167.914062 216.78125 -165.71875 C 214.820312 -162.78125 213.046875 -157.570312 211.453125 -150.09375 C 209.867188 -142.625 208.707031 -134.050781 207.96875 -124.375 C 207.238281 -114.695312 206.929688 -104.957031 207.046875 -95.15625 C 207.171875 -85.363281 207.90625 -76.671875 209.25 -69.078125 C 210.601562 -61.484375 212.503906 -56.09375 214.953125 -52.90625 C 218.628906 -48.5 221.078125 -44.945312 222.296875 -42.25 C 223.523438 -39.5625 224.140625 -36.5 224.140625 -33.0625 C 224.140625 -28.414062 222.117188 -24.863281 218.078125 -22.40625 C 214.035156 -19.957031 208.765625 -18.304688 202.265625 -17.453125 C 195.773438 -16.597656 188.734375 -16.171875 181.140625 -16.171875 L 177.84375 -16.171875 C 170.488281 -16.171875 163.503906 -16.597656 156.890625 -17.453125 C 150.273438 -18.304688 144.945312 -19.957031 140.90625 -22.40625 C 136.863281 -24.863281 134.84375 -28.414062 134.84375 -33.0625 C 134.84375 -36.5 135.640625 -39.804688 137.234375 -42.984375 C 138.828125 -46.171875 140.972656 -49.476562 143.671875 -52.90625 C 146.359375 -56.34375 148.316406 -61.671875 149.546875 -68.890625 C 150.773438 -76.117188 151.507812 -84.382812 151.75 -93.6875 C 152 -103 151.753906 -112.3125 151.015625 -121.625 C 151.015625 -121.625 150.21875 -119.414062 148.625 -115 C 147.03125 -110.59375 144.828125 -104.898438 142.015625 -97.921875 C 139.203125 -90.941406 135.957031 -83.46875 132.28125 -75.5 C 128.601562 -67.539062 124.679688 -60.070312 120.515625 -53.09375 C 116.347656 -46.113281 112.0625 -40.414062 107.65625 -36 C 103.25 -31.59375 98.84375 -29.390625 94.4375 -29.390625 C 88.550781 -29.390625 84.078125 -31.101562 81.015625 -34.53125 C 77.953125 -37.96875 76.421875 -41.890625 76.421875 -46.296875 C 76.421875 -55.847656 74.519531 -65.519531 70.71875 -75.3125 C 66.925781 -85.113281 62.457031 -94.117188 57.3125 -102.328125 C 52.175781 -110.535156 47.707031 -117.085938 43.90625 -121.984375 C 40.113281 -126.890625 38.21875 -129.34375 38.21875 -129.34375 C 37.476562 -117.09375 37.535156 -104.597656 38.390625 -91.859375 C 39.253906 -79.117188 40.847656 -67.726562 43.171875 -57.6875 C 45.503906 -47.644531 48.382812 -40.664062 51.8125 -36.75 C 53.28125 -35.28125 54.503906 -33.867188 55.484375 -32.515625 C 56.460938 -31.171875 57.070312 -29.765625 57.3125 -28.296875 C 57.8125 -24.867188 55.117188 -21.988281 49.234375 -19.65625 C 43.359375 -17.332031 36.5 -16.171875 28.65625 -16.171875 C 20.082031 -16.171875 13.097656 -17.332031 7.703125 -19.65625 C 2.316406 -21.988281 -0.25 -24.867188 0 -28.296875 C 0.25 -29.765625 0.921875 -31.171875 2.015625 -32.515625 C 3.117188 -33.867188 4.40625 -35.28125 5.875 -36.75 C 9.300781 -40.414062 12.117188 -46.84375 14.328125 -56.03125 C 16.535156 -65.21875 18.066406 -75.75 18.921875 -87.625 C 19.773438 -99.507812 19.894531 -111.390625 19.28125 -123.265625 C 18.675781 -135.148438 17.269531 -145.742188 15.0625 -155.046875 C 12.863281 -164.359375 9.679688 -170.976562 5.515625 -174.90625 C 2.085938 -178.332031 0.25 -181.269531 0 -183.71875 C -0.25 -187.144531 1.644531 -190.816406 5.6875 -194.734375 C 9.738281 -198.660156 17.394531 -200.625 28.65625 -200.625 L 58.0625 -200.625 C 66.632812 -200.625 74.410156 -197.191406 81.390625 -190.328125 C 88.367188 -183.472656 94.367188 -174.472656 99.390625 -163.328125 C 104.410156 -152.179688 108.453125 -140.175781 111.515625 -127.3125 C 114.578125 -114.457031 116.597656 -102.023438 117.578125 -90.015625 C 123.703125 -101.285156 128.109375 -112.1875 130.796875 -122.71875 C 133.492188 -133.257812 135.085938 -142.875 135.578125 -151.5625 C 136.066406 -160.257812 136.066406 -167.425781 135.578125 -173.0625 C 135.085938 -178.695312 134.84375 -182.25 134.84375 -183.71875 C 134.84375 -188.375 136.863281 -191.925781 140.90625 -194.375 C 144.945312 -196.820312 150.273438 -198.472656 156.890625 -199.328125 C 163.503906 -200.191406 170.488281 -200.625 177.84375 -200.625 L 181.140625 -200.625 C 188.734375 -200.625 195.773438 -200.191406 202.265625 -199.328125 C 208.765625 -198.472656 214.035156 -196.820312 218.078125 -194.375 C 222.117188 -191.925781 224.140625 -188.375 224.140625 -183.71875 Z M 224.140625 -183.71875 "/></g></g></g></svg>